{"title":"Kansas Raiders  (Western 1950)  Audie Murphy, Brian Donlevy &amp;amp","uid":9212931,"size":307044073,"categoryP":"video","categoryS":"movies","magnet":"?xt=urn:btih:9aec43f2635bab5b930244f42b023a53b0c4bf23&amp;dn=Kansas+Raiders++%28Western+1950%29++Audie+Murphy%2C+Brian+Donlevy+%26amp&amp;tr=udp%3A%2F%2Ftracker.openbittorrent.com%3A80&amp;tr=udp%3A%2F%2Fopen.demonii.com%3A1337&amp;tr=udp%3A%2F%2Ftracker.coppersurfer.tk%3A6969&amp;tr=udp%3A%2F%2Fexodus.desync.com%3A6969","seeders":1,"leechers":3,"uploader":"BurtonW","files":9,"time":1384820332,"description":"Storyline\n\nAudie Murphy plays a young Jesse James falling under the Svengali-like spell of the outlaw William Quantrill, played by Brian Donlevy. Jesse and his youthful gang join the rebels to avenge the death of his parents only to become disillusioned with the senseless violence and looting of innocent civilians. Goaded by Quantrill's girl to leave, Jesse vacillates until the Yankees close in. Quantrill forces Jesse to leave and faces the Yankees gunfire alone. Jesse rides off with his gang and the rest is history. \n\nTechnical info:\n\nGeneral\nComplete name : Kansas Raiders (Western 1950)Kansas Raiders (Western 1950) Audie Murphy, Brian Donlevy &amp; Marguerite Chapman.mp4\nFormat : MPEG-4\nFormat profile : Base Media / Version 2\nCodec ID : mp42\nFile size : 289 MiB\nDuration : 1h 20mn\nOverall bit rate mode : Variable\nOverall bit rate : 503 Kbps\nEncoded date : UTC 2013-11-18 04:33:08\nTagged date : UTC 2013-11-18 06:27:20\n\nVideo\nID : 1\nFormat : AVC\nFormat/Info : Advanced Video Codec\nFormat profile : &lt;a class=&quot;__cf_email__&quot; href=&quot;/cdn-cgi/l/email-protection&quot; data-cfemail=&quot;3f725e56517f730b110f&quot;&gt;[email&amp;#160;protected]&lt;/a&gt;&lt;script cf-hash='f9e31' type=&quot;text/javascript&quot;&gt;\n/* &lt;![CDATA[ */!function(){try{var t=&quot;currentScript&quot;in document?document.currentScript:function(){for(var t=document.getElementsByTagName(&quot;script&quot;),e=t.length;e--;)if(t[e].getAttribute(&quot;cf-hash&quot;))return t[e]}();if(t&amp;&amp;t.previousSibling){var e,r,n,i,c=t.previousSibling,a=c.getAttribute(&quot;data-cfemail&quot;);if(a){for(e=&quot;&quot;,r=parseInt(a.substr(0,2),16),n=2;a.length-n;n+=2)i=parseInt(a.substr(n,2),16)^r,e+=String.fromCharCode(i);e=document.createTextNode(e),c.parentNode.replaceChild(e,c)}}}catch(u){}}();/* ]]&gt; */&lt;/script&gt;\nFormat settings, CABAC : Yes\nFormat settings, ReFrames : 8 frames\nCodec ID : avc1\nCodec ID/Info : Advanced Video Coding\nDuration : 1h 20mn\nBit rate mode : Variable\nBit rate : 368 Kbps\nWidth : 720 pixels\nHeight : 480 pixels\nDisplay aspect ratio : 4:3\nOriginal display aspect ratio : 4:3\nFrame rate mode : Variable\nFrame rate : 23.976 fps\nMinimum frame rate : 16.949 fps\nMaximum frame rate : 125.000 fps\nStandard : NTSC\nColor space : YUV\nChroma subsampling : 4:2:0\nBit depth : 8 bits\nScan type : Progressive\nBits/(Pixel*Frame) : 0.044\nStream size : 211 MiB (73%)\nWriting library : x264 core 130 r2273 b3065e6\nEncoded date : UTC 2013-11-18 04:33:08\nTagged date : UTC 2013-11-18 06:27:20\nColor primaries : BT.601 NTSC\nTransfer characteristics : BT.709\nMatrix coefficients : BT.601\n\nAudio\nID : 2\nFormat : AAC\nFormat/Info : Advanced Audio Codec\nFormat profile : LC\nCodec ID : 40\nDuration : 1h 20mn\nBit rate mode : Variable\nBit rate : 129 Kbps\nMaximum bit rate : 158 Kbps\nChannel(s) : 2 channels\nChannel positions : Front: L R\nSampling rate : 48.0 KHz\nCompression mode : Lossy\nDelay relative to video : 66ms\nStream size : 74.1 MiB (26%)\nLanguage : English\nEncoded date : UTC 2013-11-18 04:33:08\nTagged date : UTC 2013-11-18 06:27:19","torrent":{"xt":"urn:btih:9aec43f2635bab5b930244f42b023a53b0c4bf23","amp;dn":"Kansas+Raiders++%28Western+1950%29++Audie+Murphy%2C+Brian+Donlevy+%26amp","amp;tr":["udp%3A%2F%2Ftracker.openbittorrent.com%3A80","udp%3A%2F%2Fopen.demonii.com%3A1337","udp%3A%2F%2Ftracker.coppersurfer.tk%3A6969","udp%3A%2F%2Fexodus.desync.com%3A6969"],"infoHash":"9aec43f2635bab5b930244f42b023a53b0c4bf23","infoHashBuffer":{"type":"Buffer","data":[154,236,67,242,99,91,171,91,147,2,68,244,43,2,58,83,176,196,191,35]},"announce":[],"urlList":[]}}